# xmcd
#
# Track frame offsets: 
#        183
#        20608
#        43535
#        67658
#        88973
#        115853
#        134573
#
# Disc length: 2380 seconds
#
# Revision: 1
# Processed by: cddbd v1.5.2PL0 Copyright (c) Steve Scherf et al.
# Submitted via: ExactAudioCopyFreeDBPlugin 1.0
#
DISCID=5a094a07
DTITLE=Muddy Waters - Muddy Mississippi Waters Live
DYEAR=1900
DGENRE=Blues
TTITLE0=Mannish Boy
TTITLE1=She's Nineteen Years Old
TTITLE2=Nine Below Zero
TTITLE3=Streamline Woman
TTITLE4=Howling Wolf
TTITLE5=Baby Please Don't Go
TTITLE6=Deep Down In Florida
EXTD=
EXTT0=
EXTT1=
EXTT2=
EXTT3=
EXTT4=
EXTT5=
EXTT6=
PLAYORDER=
